<mxfile host="drawio-plugin" modified="2022-03-10T12:39:37.491Z" agent="5.0 (Macintosh; Intel Mac OS X 11_5_2) AppleWebKit/537.36 (KHTML, like Gecko) Chrome/89.0.4389.114 Safari/537.36" etag="tbnEj36CYk9cidg-yZIM" version="15.5.4" type="embed"><diagram id="23iRSUPoRavnBvh4doch" name="Page-1"><mxGraphModel dx="1241" dy="904" grid="1" gridSize="10" guides="1" tooltips="1" connect="1" arrows="1" fold="1" page="1" pageScale="1" pageWidth="827" pageHeight="1169" math="0" shadow="0"><root><mxCell id="0"/><mxCell id="1" parent="0"/><mxCell id="23" value="" style="rounded=0;whiteSpace=wrap;html=1;fontSize=18;fontColor=#FFFFFF;" vertex="1" parent="1"><mxGeometry x="279" y="780" width="270" height="150" as="geometry"/></mxCell><mxCell id="24" style="edgeStyle=orthogonalEdgeStyle;rounded=0;orthogonalLoop=1;jettySize=auto;html=1;entryX=0.5;entryY=0;entryDx=0;entryDy=0;fontSize=18;fontColor=#FFFFFF;endArrow=classic;endFill=1;" edge="1" parent="1" source="15" target="23"><mxGeometry relative="1" as="geometry"/></mxCell><mxCell id="15" value="" style="rounded=1;whiteSpace=wrap;html=1;fontSize=18;" vertex="1" parent="1"><mxGeometry x="223" y="180" width="380" height="500" as="geometry"/></mxCell><mxCell id="16" style="edgeStyle=orthogonalEdgeStyle;rounded=0;orthogonalLoop=1;jettySize=auto;html=1;entryX=0;entryY=0.5;entryDx=0;entryDy=0;fontSize=18;" edge="1" parent="1" source="2" target="9"><mxGeometry relative="1" as="geometry"/></mxCell><mxCell id="2" value="&lt;font style=&quot;font-size: 18px&quot;&gt;Data analyst&lt;/font&gt;" style="shape=umlActor;verticalLabelPosition=bottom;verticalAlign=top;html=1;outlineConnect=0;" vertex="1" parent="1"><mxGeometry x="90" y="185" width="60" height="110" as="geometry"/></mxCell><mxCell id="17" style="edgeStyle=orthogonalEdgeStyle;rounded=0;orthogonalLoop=1;jettySize=auto;html=1;entryX=1;entryY=0.5;entryDx=0;entryDy=0;fontSize=18;endArrow=none;endFill=0;" edge="1" parent="1" source="3" target="9"><mxGeometry relative="1" as="geometry"/></mxCell><mxCell id="3" value="&lt;font style=&quot;font-size: 18px&quot;&gt;Database&lt;/font&gt;" style="shape=datastore;whiteSpace=wrap;html=1;" vertex="1" parent="1"><mxGeometry x="670" y="195" width="90" height="90" as="geometry"/></mxCell><mxCell id="4" value="&lt;font style=&quot;font-size: 18px&quot;&gt;City reports&lt;/font&gt;" style="ellipse;whiteSpace=wrap;html=1;" vertex="1" parent="1"><mxGeometry x="440" y="380" width="120" height="80" as="geometry"/></mxCell><mxCell id="5" value="&lt;font style=&quot;font-size: 18px&quot;&gt;Population reports&lt;/font&gt;" style="ellipse;whiteSpace=wrap;html=1;" vertex="1" parent="1"><mxGeometry x="420" y="500" width="120" height="80" as="geometry"/></mxCell><mxCell id="6" value="&lt;font style=&quot;font-size: 18px&quot;&gt;Country reports&lt;/font&gt;" style="ellipse;whiteSpace=wrap;html=1;" vertex="1" parent="1"><mxGeometry x="293" y="320" width="120" height="80" as="geometry"/></mxCell><mxCell id="7" value="&lt;font style=&quot;font-size: 18px&quot;&gt;Capital city reports&lt;/font&gt;" style="ellipse;whiteSpace=wrap;html=1;" vertex="1" parent="1"><mxGeometry x="270" y="440" width="120" height="80" as="geometry"/></mxCell><mxCell id="8" value="&lt;font style=&quot;font-size: 18px&quot;&gt;Language reports&lt;br&gt;&lt;/font&gt;" style="ellipse;whiteSpace=wrap;html=1;" vertex="1" parent="1"><mxGeometry x="270" y="550" width="120" height="80" as="geometry"/></mxCell><mxCell id="9" value="Produce various reports" style="rounded=0;whiteSpace=wrap;html=1;fontSize=18;" vertex="1" parent="1"><mxGeometry x="289" y="210" width="250" height="60" as="geometry"/></mxCell><mxCell id="22" value="&lt;font style=&quot;font-size: 18px&quot; color=&quot;#ffffff&quot;&gt;Print reports for organisation&lt;/font&gt;" style="fontColor=#0066CC;verticalAlign=top;verticalLabelPosition=bottom;labelPosition=center;align=center;html=1;outlineConnect=0;fillColor=#CCCCCC;strokeColor=#6881B3;gradientColor=none;gradientDirection=north;strokeWidth=2;shape=mxgraph.networks.printer;fontSize=18;" vertex="1" parent="1"><mxGeometry x="370.5" y="790" width="87" height="90" as="geometry"/></mxCell></root></mxGraphModel></diagram></mxfile>